{
  "accessors": [
    {
      "bufferView": 2,
      "componentType": 5126,
      "count": 4282,
      "max": [
        -1.5669702291488647,
        0.7085355520248413,
        1.7253320217132568
      ],
      "min": [
        -4.234368324279785,
        -0.5831401348114014,
        0.09908100962638855
      ],
      "type": "VEC3"
    },
    {
      "bufferView": 2,
      "byteOffset": 51384,
      "componentType": 5126,
      "count": 4282,
      "max": [
        0.9983566999435425,
        0.9994767904281616,
        0.9976481795310974
      ],
      "min": [
        -0.9983566403388977,
        -0.9998064041137695,
        -0.9993780255317688
      ],
      "type": "VEC3"
    },
    {
      "bufferView": 3,
      "componentType": 5126,
      "count": 4282,
      "max": [
        0.9686274528503418,
        0.9019607901573181,
        0.9019607901573181,
        1.0
      ],
      "min": [
        0.686274528503418,
        0.0117647061124444,
        0.0117647061124444,
        1.0
      ],
      "type": "VEC4"
    },
    {
      "bufferView": 1,
      "componentType": 5126,
      "count": 4282,
      "max": [
        1.0,
        1.0
      ],
      "min": [
        0.0,
        0.0
      ],
      "type": "VEC2"
    },
    {
      "bufferView": 0,
      "componentType": 5125,
      "count": 23808,
      "type": "SCALAR"
    },
    {
      "bufferView": 2,
      "byteOffset": 102768,
      "componentType": 5126,
      "count": 65532,
      "max": [
        -1.303219199180603,
        8.346634864807129,
        2.131099224090576
      ],
      "min": [
        -4.5584259033203125,
        -1.135270595550537,
        -2.6639068126678467
      ],
      "type": "VEC3"
    },
    {
      "bufferView": 2,
      "byteOffset": 889152,
      "componentType": 5126,
      "count": 65532,
      "max": [
        0.9999885559082031,
        0.9998675584793091,
        0.9999579787254333
      ],
      "min": [
        -0.9999287128448486,
        -0.9999874830245972,
        -0.9999785423278809
      ],
      "type": "VEC3"
    },
    {
      "bufferView": 3,
      "byteOffset": 68512,
      "componentType": 5126,
      "count": 65532,
      "max": [
        0.2823529541492462,
        0.250980406999588,
        0.20000000298023224,
        1.0
      ],
      "min": [
        0.12156862765550613,
        0.08627451211214066,
        0.0235294122248888,
        1.0
      ],
      "type": "VEC4"
    },
    {
      "bufferView": 1,
      "byteOffset": 34256,
      "componentType": 5126,
      "count": 65532,
      "max": [
        0.0,
        0.0
      ],
      "min": [
        0.0,
        0.0
      ],
      "type": "VEC2"
    },
    {
      "bufferView": 0,
      "byteOffset": 95232,
      "componentType": 5125,
      "count": 372540,
      "type": "SCALAR"
    },
    {
      "bufferView": 2,
      "byteOffset": 1675536,
      "componentType": 5126,
      "count": 65532,
      "max": [
        -1.2530291080474854,
        8.335365295410156,
        2.454921245574951
      ],
      "min": [
        -4.508624076843262,
        -1.135270595550537,
        -2.6639068126678467
      ],
      "type": "VEC3"
    },
    {
      "bufferView": 2,
      "byteOffset": 2461920,
      "componentType": 5126,
      "count": 65532,
      "max": [
        0.9999583959579468,
        0.9999750256538391,
        0.9999790191650391
      ],
      "min": [
        -0.9999990463256836,
        -0.9999377727508545,
        -0.9999369382858276
      ],
      "type": "VEC3"
    },
    {
      "bufferView": 3,
      "byteOffset": 1117024,
      "componentType": 5126,
      "count": 65532,
      "max": [
        0.2823529541492462,
        0.2549019753932953,
        0.20000000298023224,
        1.0
      ],
      "min": [
        0.12156862765550613,
        0.08627451211214066,
        0.0235294122248888,
        1.0
      ],
      "type": "VEC4"
    },
    {
      "bufferView": 1,
      "byteOffset": 558512,
      "componentType": 5126,
      "count": 65532,
      "max": [
        0.0,
        0.0
      ],
      "min": [
        0.0,
        0.0
      ],
      "type": "VEC2"
    },
    {
      "bufferView": 0,
      "byteOffset": 1585392,
      "componentType": 5125,
      "count": 356211,
      "type": "SCALAR"
    },
    {
      "bufferView": 2,
      "byteOffset": 3248304,
      "componentType": 5126,
      "count": 54011,
      "max": [
        -1.2530291080474854,
        6.80081844329834,
        2.4548323154449463
      ],
      "min": [
        -4.503386497497559,
        -1.127621054649353,
        -1.2303400039672852
      ],
      "type": "VEC3"
    },
    {
      "bufferView": 2,
      "byteOffset": 3896436,
      "componentType": 5126,
      "count": 54011,
      "max": [
        0.9999970197677612,
        0.9999682903289795,
        0.9999790191650391
      ],
      "min": [
        -0.9999987483024597,
        -0.9999544024467468,
        -0.9999832510948181
      ],
      "type": "VEC3"
    },
    {
      "bufferView": 3,
      "byteOffset": 2165536,
      "componentType": 5126,
      "count": 54011,
      "max": [
        0.2823529541492462,
        0.250980406999588,
        0.20000000298023224,
        1.0
      ],
      "min": [
        0.12156862765550613,
        0.08627451211214066,
        0.0235294122248888,
        1.0
      ],
      "type": "VEC4"
    },
    {
      "bufferView": 1,
      "byteOffset": 1082768,
      "componentType": 5126,
      "count": 54011,
      "max": [
        0.0,
        0.0
      ],
      "min": [
        0.0,
        0.0
      ],
      "type": "VEC2"
    },
    {
      "bufferView": 0,
      "byteOffset": 3010236,
      "componentType": 5125,
      "count": 279213,
      "type": "SCALAR"
    },
    {
      "bufferView": 2,
      "byteOffset": 4544568,
      "componentType": 5126,
      "count": 65532,
      "max": [
        -1.3286727666854858,
        8.28479290008545,
        2.2483086585998535
      ],
      "min": [
        -4.472568988800049,
        1.0379997491836548,
        -3.011962890625
      ],
      "type": "VEC3"
    },
    {
      "bufferView": 2,
      "byteOffset": 5330952,
      "componentType": 5126,
      "count": 65532,
      "max": [
        0.9999741911888123,
        0.9999842047691345,
        0.999997615814209
      ],
      "min": [
        -0.9999725222587585,
        -0.9873966574668884,
        -0.9999377727508545
      ],
      "type": "VEC3"
    },
    {
      "bufferView": 3,
      "byteOffset": 3029712,
      "componentType": 5126,
      "count": 65532,
      "max": [
        0.9450980424880981,
        0.8078431487083435,
        0.5803921818733215,
        1.0
      ],
      "min": [
        0.32549020648002625,
        0.2549019753932953,
        0.003921568859368563,
        1.0
      ],
      "type": "VEC4"
    },
    {
      "bufferView": 1,
      "byteOffset": 1514856,
      "componentType": 5126,
      "count": 65532,
      "max": [
        0.0,
        0.0
      ],
      "min": [
        0.0,
        0.0
      ],
      "type": "VEC2"
    },
    {
      "bufferView": 0,
      "byteOffset": 4127088,
      "componentType": 5125,
      "count": 336456,
      "type": "SCALAR"
    },
    {
      "bufferView": 2,
      "byteOffset": 6117336,
      "componentType": 5126,
      "count": 29267,
      "max": [
        -1.3678302764892578,
        8.254141807556152,
        2.2479910850524902
      ],
      "min": [
        -4.4601006507873535,
        0.9126423597335815,
        -3.008273124694824
      ],
      "type": "VEC3"
    },
    {
      "bufferView": 2,
      "byteOffset": 6468540,
      "componentType": 5126,
      "count": 29267,
      "max": [
        0.9999517798423767,
        0.999808132648468,
        0.9999895691871643
      ],
      "min": [
        -0.9999725222587585,
        -0.999690592288971,
        -0.9999170899391174
      ],
      "type": "VEC3"
    },
    {
      "bufferView": 3,
      "byteOffset": 4078224,
      "componentType": 5126,
      "count": 29267,
      "max": [
        0.9450980424880981,
        0.8078431487083435,
        0.5803921818733215,
        1.0
      ],
      "min": [
        0.32549020648002625,
        0.25882354378700256,
        0.003921568859368563,
        1.0
      ],
      "type": "VEC4"
    },
    {
      "bufferView": 1,
      "byteOffset": 2039112,
      "componentType": 5126,
      "count": 29267,
      "max": [
        0.0,
        0.0
      ],
      "min": [
        0.0,
        0.0
      ],
      "type": "VEC2"
    },
    {
      "bufferView": 0,
      "byteOffset": 5472912,
      "componentType": 5125,
      "count": 117540,
      "type": "SCALAR"
    },
    {
      "bufferView": 2,
      "byteOffset": 6819744,
      "componentType": 5126,
      "count": 5959,
      "max": [
        -1.664873719215393,
        0.7568470239639282,
        1.9366010427474976
      ],
      "min": [
        -4.102009296417236,
        -0.46822023391723633,
        0.4310939610004425
      ],
      "type": "VEC3"
    },
    {
      "bufferView": 2,
      "byteOffset": 6891252,
      "componentType": 5126,
      "count": 5959,
      "max": [
        1.0,
        1.0,
        1.0
      ],
      "min": [
        -1.0,
        -1.0,
        -1.0
      ],
      "type": "VEC3"
    },
    {
      "bufferView": 3,
      "byteOffset": 4546496,
      "componentType": 5126,
      "count": 5959,
      "max": [
        0.6941176652908325,
        0.03921568766236305,
        0.03921568766236305,
        1.0
      ],
      "min": [
        0.686274528503418,
        0.0117647061124444,
        0.0117647061124444,
        1.0
      ],
      "type": "VEC4"
    },
    {
      "bufferView": 1,
      "byteOffset": 2273248,
      "componentType": 5126,
      "count": 5959,
      "max": [
        1.0,
        1.0
      ],
      "min": [
        0.0,
        0.0
      ],
      "type": "VEC2"
    },
    {
      "bufferView": 0,
      "byteOffset": 5943072,
      "componentType": 5125,
      "count": 32448,
      "type": "SCALAR"
    },
    {
      "bufferView": 2,
      "byteOffset": 6962760,
      "componentType": 5126,
      "count": 21563,
      "max": [
        -1.7490859031677246,
        1.005265235900879,
        2.045936107635498
      ],
      "min": [
        -4.052607536315918,
        -1.005265712738037,
        -0.5966339707374573
      ],
      "type": "VEC3"
    },
    {
      "bufferView": 2,
      "byteOffset": 7221516,
      "componentType": 5126,
      "count": 21563,
      "max": [
        0.9999265670776367,
        0.9999946355819702,
        0.9999738335609436
      ],
      "min": [
        -0.9999955296516418,
        -0.9999428987503052,
        -0.9998905062675476
      ],
      "type": "VEC3"
    },
    {
      "bufferView": 3,
      "byteOffset": 4641840,
      "componentType": 5126,
      "count": 21563,
      "max": [
        0.8470588326454163,
        0.6470588445663452,
        0.2980392277240753,
        1.0
      ],
      "min": [
        0.6313725709915161,
        0.3803921639919281,
        0.054901961237192154,
        1.0
      ],
      "type": "VEC4"
    },
    {
      "bufferView": 1,
      "byteOffset": 2320920,
      "componentType": 5126,
      "count": 21563,
      "max": [
        1.0,
        0.9629799723625183
      ],
      "min": [
        0.0,
        0.0
      ],
      "type": "VEC2"
    },
    {
      "bufferView": 0,
      "byteOffset": 6072864,
      "componentType": 5125,
      "count": 114936,
      "type": "SCALAR"
    },
    {
      "bufferView": 2,
      "byteOffset": 7480272,
      "componentType": 5126,
      "count": 65532,
      "max": [
        1.0191162824630737,
        8.101872444152832,
        0.44330430030822754
      ],
      "min": [
        -6.815972805023193,
        -0.07599657773971558,
        -3.9754865169525146
      ],
      "type": "VEC3"
    },
    {
      "bufferView": 2,
      "byteOffset": 8266656,
      "componentType": 5126,
      "count": 65532,
      "max": [
        0.9999837279319763,
        0.9999780058860779,
        0.9996433854103088
      ],
      "min": [
        -0.9999715089797974,
        -0.99989253282547,
        -0.9994307160377502
      ],
      "type": "VEC3"
    },
    {
      "bufferView": 3,
      "byteOffset": 4986848,
      "componentType": 5126,
      "count": 65532,
      "max": [
        0.9176470637321472,
        0.772549033164978,
        0.5372549295425415,
        1.0
      ],
      "min": [
        0.6039215922355652,
        0.34117648005485535,
        0.0117647061124444,
        1.0
      ],
      "type": "VEC4"
    },
    {
      "bufferView": 1,
      "byteOffset": 2493424,
      "componentType": 5126,
      "count": 65532,
      "max": [
        354.0,
        2304.0
      ],
      "min": [
        -1.0,
        -1.0
      ],
      "type": "VEC2"
    },
    {
      "bufferView": 0,
      "byteOffset": 6532608,
      "componentType": 5125,
      "count": 203943,
      "type": "SCALAR"
    },
    {
      "bufferView": 2,
      "byteOffset": 9053040,
      "componentType": 5126,
      "count": 65532,
      "max": [
        1.0191162824630737,
        8.101750373840332,
        0.4185238182544708
      ],
      "min": [
        -6.815977573394775,
        -0.07760868966579437,
        -3.976219654083252
      ],
      "type": "VEC3"
    },
    {
      "bufferView": 2,
      "byteOffset": 9839424,
      "componentType": 5126,
      "count": 65532,
      "max": [
        0.9999837279319763,
        0.9999804496765137,
        0.9998198747634888
      ],
      "min": [
        -0.9999123215675354,
        -0.9997819066047668,
        -0.9999591708183289
      ],
      "type": "VEC3"
    },
    {
      "bufferView": 3,
      "byteOffset": 6035360,
      "componentType": 5126,
      "count": 65532,
      "max": [
        0.9176470637321472,
        0.772549033164978,
        0.5372549295425415,
        1.0
      ],
      "min": [
        0.6039215922355652,
        0.34117648005485535,
        0.0117647061124444,
        1.0
      ],
      "type": "VEC4"
    },
    {
      "bufferView": 1,
      "byteOffset": 3017680,
      "componentType": 5126,
      "count": 65532,
      "max": [
        359.0,
        2304.0
      ],
      "min": [
        -1.0,
        -1.0
      ],
      "type": "VEC2"
    },
    {
      "bufferView": 0,
      "byteOffset": 7348380,
      "componentType": 5125,
      "count": 177471,
      "type": "SCALAR"
    },
    {
      "bufferView": 2,
      "byteOffset": 10625808,
      "componentType": 5126,
      "count": 12781,
      "max": [
        0.9454500675201416,
        3.6613457202911377,
        0.3712041974067688
      ],
      "min": [
        -6.769356727600098,
        2.6415297985076904,
        -3.405099391937256
      ],
      "type": "VEC3"
    },
    {
      "bufferView": 2,
      "byteOffset": 10779180,
      "componentType": 5126,
      "count": 12781,
      "max": [
        0.999798595905304,
        0.9999818801879883,
        0.9984963536262512
      ],
      "min": [
        -0.9991706013679504,
        -0.9999908208847046,
        -0.9963744282722473
      ],
      "type": "VEC3"
    },
    {
      "bufferView": 3,
      "byteOffset": 7083872,
      "componentType": 5126,
      "count": 12781,
      "max": [
        0.8941176533699036,
        0.7411764860153198,
        0.4941176474094391,
        1.0
      ],
      "min": [
        0.6666666865348816,
        0.42352941632270813,
        0.11372549086809158,
        1.0
      ],
      "type": "VEC4"
    },
    {
      "bufferView": 1,
      "byteOffset": 3541936,
      "componentType": 5126,
      "count": 12781,
      "max": [
        1.0,
        1.0
      ],
      "min": [
        -1.0,
        -1.0
      ],
      "type": "VEC2"
    },
    {
      "bufferView": 0,
      "byteOffset": 8058264,
      "componentType": 5125,
      "count": 45984,
      "type": "SCALAR"
    },
    {
      "bufferView": 2,
      "byteOffset": 10932552,
      "componentType": 5126,
      "count": 35008,
      "max": [
        -1.649665117263794,
        1.4741861820220947,
        1.1089205741882324
      ],
      "min": [
        -4.1518402099609375,
        1.0573787689208984,
        0.7052682638168335
      ],
      "type": "VEC3"
    },
    {
      "bufferView": 2,
      "byteOffset": 11352648,
      "componentType": 5126,
      "count": 35008,
      "max": [
        0.9999919533729553,
        0.9999889135360718,
        0.9999998807907104
      ],
      "min": [
        -0.9999423623085022,
        -0.9982630610466003,
        -0.9997660517692566
      ],
      "type": "VEC3"
    },
    {
      "bufferView": 3,
      "byteOffset": 7288368,
      "componentType": 5126,
      "count": 35008,
      "max": [
        0.8980392217636108,
        0.8941176533699036,
        0.886274516582489,
        1.0
      ],
      "min": [
        0.12156862765550613,
        0.08627451211214066,
        0.0235294122248888,
        1.0
      ],
      "type": "VEC4"
    },
    {
      "bufferView": 1,
      "byteOffset": 3644184,
      "componentType": 5126,
      "count": 35008,
      "max": [
        0.0,
        0.0
      ],
      "min": [
        0.0,
        0.0
      ],
      "type": "VEC2"
    },
    {
      "bufferView": 0,
      "byteOffset": 8242200,
      "componentType": 5125,
      "count": 209652,
      "type": "SCALAR"
    },
    {
      "bufferView": 2,
      "byteOffset": 11772744,
      "componentType": 5126,
      "count": 65532,
      "max": [
        -3.3184900283813477,
        8.107976913452148,
        1.6513423919677734
      ],
      "min": [
        -6.909664630889893,
        2.542450428009033,
        0.4229106903076172
      ],
      "type": "VEC3"
    },
    {
      "bufferView": 2,
      "byteOffset": 12559128,
      "componentType": 5126,
      "count": 65532,
      "max": [
        0.999894917011261,
        0.5294162034988403,
        0.999995768070221
      ],
      "min": [
        -0.9975588321685791,
        -0.9357230067253113,
        -0.999818742275238
      ],
      "type": "VEC3"
    },
    {
      "bufferView": 3,
      "byteOffset": 7848496,
      "componentType": 5126,
      "count": 65532,
      "max": [
        0.9019607901573181,
        0.8392156958580017,
        0.8196078538894653,
        1.0
      ],
      "min": [
        0.49803921580314636,
        0.4941176474094391,
        0.4901960790157318,
        1.0
      ],
      "type": "VEC4"
    },
    {
      "bufferView": 1,
      "byteOffset": 3924248,
      "componentType": 5126,
      "count": 65532,
      "max": [
        0.0,
        0.0
      ],
      "min": [
        0.0,
        0.0
      ],
      "type": "VEC2"
    },
    {
      "bufferView": 0,
      "byteOffset": 9080808,
      "componentType": 5125,
      "count": 276594,
      "type": "SCALAR"
    },
    {
      "bufferView": 2,
      "byteOffset": 13345512,
      "componentType": 5126,
      "count": 65532,
      "max": [
        1.2214308977127075,
        11.205469131469727,
        1.4446104764938354
      ],
      "min": [
        -7.034149169921875,
        2.5374279022216797,
        0.387325644493103
      ],
      "type": "VEC3"
    },
    {
      "bufferView": 2,
      "byteOffset": 14131896,
      "componentType": 5126,
      "count": 65532,
      "max": [
        0.9997957944869995,
        0.9993775486946106,
        0.9999952912330627
      ],
      "min": [
        -0.9999081492424011,
        -0.9999933838844299,
        -0.9999991059303284
      ],
      "type": "VEC3"
    },
    {
      "bufferView": 3,
      "byteOffset": 8897008,
      "componentType": 5126,
      "count": 65532,
      "max": [
        0.9019607901573181,
        0.843137264251709,
        0.8196078538894653,
        1.0
      ],
      "min": [
        0.5058823823928833,
        0.49803921580314636,
        0.4901960790157318,
        1.0
      ],
      "type": "VEC4"
    },
    {
      "bufferView": 1,
      "byteOffset": 4448504,
      "componentType": 5126,
      "count": 65532,
      "max": [
        0.0,
        0.0
      ],
      "min": [
        0.0,
        0.0
      ],
      "type": "VEC2"
    },
    {
      "bufferView": 0,
      "byteOffset": 10187184,
      "componentType": 5125,
      "count": 324435,
      "type": "SCALAR"
    },
    {
      "bufferView": 2,
      "byteOffset": 14918280,
      "componentType": 5126,
      "count": 65532,
      "max": [
        1.23370361328125,
        11.1114501953125,
        1.651249647140503
      ],
      "min": [
        -2.4823808670043945,
        2.5382790565490723,
        0.3900977373123169
      ],
      "type": "VEC3"
    },
    {
      "bufferView": 2,
      "byteOffset": 15704664,
      "componentType": 5126,
      "count": 65532,
      "max": [
        0.999922513961792,
        0.939140796661377,
        0.9999917149543762
      ],
      "min": [
        -0.9999005794525146,
        -0.8565495014190674,
        -0.9999741911888123
      ],
      "type": "VEC3"
    },
    {
      "bufferView": 3,
      "byteOffset": 9945520,
      "componentType": 5126,
      "count": 65532,
      "max": [
        0.8980392217636108,
        0.8392156958580017,
        0.8235294222831726,
        1.0
      ],
      "min": [
        0.49803921580314636,
        0.4941176474094391,
        0.4901960790157318,
        1.0
      ],
      "type": "VEC4"
    },
    {
      "bufferView": 1,
      "byteOffset": 4972760,
      "componentType": 5126,
      "count": 65532,
      "max": [
        0.0,
        0.0
      ],
      "min": [
        0.0,
        0.0
      ],
      "type": "VEC2"
    },
    {
      "bufferView": 0,
      "byteOffset": 11484924,
      "componentType": 5125,
      "count": 230781,
      "type": "SCALAR"
    },
    {
      "bufferView": 2,
      "byteOffset": 16491048,
      "componentType": 5126,
      "count": 65532,
      "max": [
        1.23370361328125,
        9.903438568115234,
        1.6510313749313354
      ],
      "min": [
        -2.4823808670043945,
        2.548008441925049,
        0.38795676827430725
      ],
      "type": "VEC3"
    },
    {
      "bufferView": 2,
      "byteOffset": 17277432,
      "componentType": 5126,
      "count": 65532,
      "max": [
        0.9997537136077881,
        0.6110933423042297,
        0.9999998807907104
      ],
      "min": [
        -0.9999005794525146,
        -0.8565495014190674,
        -0.9999936819076538
      ],
      "type": "VEC3"
    },
    {
      "bufferView": 3,
      "byteOffset": 10994032,
      "componentType": 5126,
      "count": 65532,
      "max": [
        0.9019607901573181,
        0.843137264251709,
        0.8235294222831726,
        1.0
      ],
      "min": [
        0.49803921580314636,
        0.4941176474094391,
        0.4901960790157318,
        1.0
      ],
      "type": "VEC4"
    },
    {
      "bufferView": 1,
      "byteOffset": 5497016,
      "componentType": 5126,
      "count": 65532,
      "max": [
        0.0,
        0.0
      ],
      "min": [
        0.0,
        0.0
      ],
      "type": "VEC2"
    },
    {
      "bufferView": 0,
      "byteOffset": 12408048,
      "componentType": 5125,
      "count": 246885,
      "type": "SCALAR"
    },
    {
      "bufferView": 2,
      "byteOffset": 18063816,
      "componentType": 5126,
      "count": 65532,
      "max": [
        1.233126163482666,
        11.205568313598633,
        1.651249647140503
      ],
      "min": [
        -5.848692417144775,
        2.5370936393737793,
        0.3872262239456177
      ],
      "type": "VEC3"
    },
    {
      "bufferView": 2,
      "byteOffset": 18850200,
      "componentType": 5126,
      "count": 65532,
      "max": [
        0.9979274868965149,
        0.9961346387863159,
        0.9999998807907104
      ],
      "min": [
        -0.9998301863670349,
        -0.9642859101295471,
        -0.9999924898147583
      ],
      "type": "VEC3"
    },
    {
      "bufferView": 3,
      "byteOffset": 12042544,
      "componentType": 5126,
      "count": 65532,
      "max": [
        0.9019607901573181,
        0.843137264251709,
        0.8196078538894653,
        1.0
      ],
      "min": [
        0.501960813999176,
        0.49803921580314636,
        0.4901960790157318,
        1.0
      ],
      "type": "VEC4"
    },
    {
      "bufferView": 1,
      "byteOffset": 6021272,
      "componentType": 5126,
      "count": 65532,
      "max": [
        0.0,
        0.0
      ],
      "min": [
        0.0,
        0.0
      ],
      "type": "VEC2"
    },
    {
      "bufferView": 0,
      "byteOffset": 13395588,
      "componentType": 5125,
      "count": 297528,
      "type": "SCALAR"
    },
    {
      "bufferView": 2,
      "byteOffset": 19636584,
      "componentType": 5126,
      "count": 51358,
      "max": [
        -3.3183200359344482,
        9.505839347839355,
        1.6513423919677734
      ],
      "min": [
        -7.024926662445068,
        4.874377250671387,
        0.39099329710006714
      ],
      "type": "VEC3"
    },
    {
      "bufferView": 2,
      "byteOffset": 20252880,
      "componentType": 5126,
      "count": 51358,
      "max": [
        0.999894917011261,
        0.5739154815673828,
        0.9999367594718933
      ],
      "min": [
        -0.9998832941055298,
        -0.656769871711731,
        -0.9999876022338867
      ],
      "type": "VEC3"
    },
    {
      "bufferView": 3,
      "byteOffset": 13091056,
      "componentType": 5126,
      "count": 51358,
      "max": [
        0.9019607901573181,
        0.843137264251709,
        0.7960784435272217,
        1.0
      ],
      "min": [
        0.5647059082984924,
        0.545098066329956,
        0.5137255191802979,
        1.0
      ],
      "type": "VEC4"
    },
    {
      "bufferView": 1,
      "byteOffset": 6545528,
      "componentType": 5126,
      "count": 51358,
      "max": [
        0.0,
        0.0
      ],
      "min": [
        0.0,
        0.0
      ],
      "type": "VEC2"
    },
    {
      "bufferView": 0,
      "byteOffset": 14585700,
      "componentType": 5125,
      "count": 244401,
      "type": "SCALAR"
    }
  ],
  "asset": {
    "extras": {
      "author": "mlykouretzos (https://sketchfab.com/mlykouretzos)",
      "license": "CC-BY-4.0 (http://creativecommons.org/licenses/by/4.0/)",
      "source": "https://sketchfab.com/3d-models/wildtype-virgin-female-drosophila-melanogaster-88485a6904174035bdaf18359a13324d",
      "title": "Wildtype Virgin Female Drosophila Melanogaster"
    },
    "generator": "Sketchfab-16.56.0",
    "version": "2.0"
  },
  "bufferViews": [
    {
      "buffer": 0,
      "byteLength": 15563304,
      "name": "floatBufferViews",
      "target": 34963
    },
    {
      "buffer": 0,
      "byteLength": 6956392,
      "byteOffset": 15563304,
      "byteStride": 8,
      "name": "floatBufferViews",
      "target": 34962
    },
    {
      "buffer": 0,
      "byteLength": 20869176,
      "byteOffset": 22519696,
      "byteStride": 12,
      "name": "floatBufferViews",
      "target": 34962
    },
    {
      "buffer": 0,
      "byteLength": 13912784,
      "byteOffset": 43388872,
      "byteStride": 16,
      "name": "floatBufferViews",
      "target": 34962
    }
  ],
  "buffers": [
    {
      "byteLength": 57301656,
      "uri": "scene.bin"
    }
  ],
  "materials": [
    {
      "doubleSided": true,
      "name": "defaultMat",
      "pbrMetallicRoughness": {
        "metallicFactor": 0.0,
        "roughnessFactor": 0.6
      }
    }
  ],
  "meshes": [
    {
      "name": "Object_0",
      "primitives": [
        {
          "attributes": {
            "COLOR_0": 2,
            "NORMAL": 1,
            "POSITION": 0,
            "TEXCOORD_0": 3
          },
          "indices": 4,
          "material": 0,
          "mode": 4
        }
      ]
    },
    {
      "name": "Object_1",
      "primitives": [
        {
          "attributes": {
            "COLOR_0": 7,
            "NORMAL": 6,
            "POSITION": 5,
            "TEXCOORD_0": 8
          },
          "indices": 9,
          "material": 0,
          "mode": 4
        }
      ]
    },
    {
      "name": "Object_2",
      "primitives": [
        {
          "attributes": {
            "COLOR_0": 12,
            "NORMAL": 11,
            "POSITION": 10,
            "TEXCOORD_0": 13
          },
          "indices": 14,
          "material": 0,
          "mode": 4
        }
      ]
    },
    {
      "name": "Object_3",
      "primitives": [
        {
          "attributes": {
            "COLOR_0": 17,
            "NORMAL": 16,
            "POSITION": 15,
            "TEXCOORD_0": 18
          },
          "indices": 19,
          "material": 0,
          "mode": 4
        }
      ]
    },
    {
      "name": "Object_4",
      "primitives": [
        {
          "attributes": {
            "COLOR_0": 22,
            "NORMAL": 21,
            "POSITION": 20,
            "TEXCOORD_0": 23
          },
          "indices": 24,
          "material": 0,
          "mode": 4
        }
      ]
    },
    {
      "name": "Object_5",
      "primitives": [
        {
          "attributes": {
            "COLOR_0": 27,
            "NORMAL": 26,
            "POSITION": 25,
            "TEXCOORD_0": 28
          },
          "indices": 29,
          "material": 0,
          "mode": 4
        }
      ]
    },
    {
      "name": "Object_6",
      "primitives": [
        {
          "attributes": {
            "COLOR_0": 32,
            "NORMAL": 31,
            "POSITION": 30,
            "TEXCOORD_0": 33
          },
          "indices": 34,
          "material": 0,
          "mode": 4
        }
      ]
    },
    {
      "name": "Object_7",
      "primitives": [
        {
          "attributes": {
            "COLOR_0": 37,
            "NORMAL": 36,
            "POSITION": 35,
            "TEXCOORD_0": 38
          },
          "indices": 39,
          "material": 0,
          "mode": 4
        }
      ]
    },
    {
      "name": "Object_8",
      "primitives": [
        {
          "attributes": {
            "COLOR_0": 42,
            "NORMAL": 41,
            "POSITION": 40,
            "TEXCOORD_0": 43
          },
          "indices": 44,
          "material": 0,
          "mode": 4
        }
      ]
    },
    {
      "name": "Object_9",
      "primitives": [
        {
          "attributes": {
            "COLOR_0": 47,
            "NORMAL": 46,
            "POSITION": 45,
            "TEXCOORD_0": 48
          },
          "indices": 49,
          "material": 0,
          "mode": 4
        }
      ]
    },
    {
      "name": "Object_10",
      "primitives": [
        {
          "attributes": {
            "COLOR_0": 52,
            "NORMAL": 51,
            "POSITION": 50,
            "TEXCOORD_0": 53
          },
          "indices": 54,
          "material": 0,
          "mode": 4
        }
      ]
    },
    {
      "name": "Object_11",
      "primitives": [
        {
          "attributes": {
            "COLOR_0": 57,
            "NORMAL": 56,
            "POSITION": 55,
            "TEXCOORD_0": 58
          },
          "indices": 59,
          "material": 0,
          "mode": 4
        }
      ]
    },
    {
      "name": "Object_12",
      "primitives": [
        {
          "attributes": {
            "COLOR_0": 62,
            "NORMAL": 61,
            "POSITION": 60,
            "TEXCOORD_0": 63
          },
          "indices": 64,
          "material": 0,
          "mode": 4
        }
      ]
    },
    {
      "name": "Object_13",
      "primitives": [
        {
          "attributes": {
            "COLOR_0": 67,
            "NORMAL": 66,
            "POSITION": 65,
            "TEXCOORD_0": 68
          },
          "indices": 69,
          "material": 0,
          "mode": 4
        }
      ]
    },
    {
      "name": "Object_14",
      "primitives": [
        {
          "attributes": {
            "COLOR_0": 72,
            "NORMAL": 71,
            "POSITION": 70,
            "TEXCOORD_0": 73
          },
          "indices": 74,
          "material": 0,
          "mode": 4
        }
      ]
    },
    {
      "name": "Object_15",
      "primitives": [
        {
          "attributes": {
            "COLOR_0": 77,
            "NORMAL": 76,
            "POSITION": 75,
            "TEXCOORD_0": 78
          },
          "indices": 79,
          "material": 0,
          "mode": 4
        }
      ]
    },
    {
      "name": "Object_16",
      "primitives": [
        {
          "attributes": {
            "COLOR_0": 82,
            "NORMAL": 81,
            "POSITION": 80,
            "TEXCOORD_0": 83
          },
          "indices": 84,
          "material": 0,
          "mode": 4
        }
      ]
    },
    {
      "name": "Object_17",
      "primitives": [
        {
          "attributes": {
            "COLOR_0": 87,
            "NORMAL": 86,
            "POSITION": 85,
            "TEXCOORD_0": 88
          },
          "indices": 89,
          "material": 0,
          "mode": 4
        }
      ]
    }
  ],
  "nodes": [
    {
      "children": [
        1
      ],
      "matrix": [
        1.0,
        0.0,
        0.0,
        0.0,
        0.0,
        2.220446049250313e-16,
        -1.0,
        0.0,
        0.0,
        1.0,
        2.220446049250313e-16,
        0.0,
        0.0,
        0.0,
        0.0,
        1.0
      ],
      "name": "Sketchfab_model"
    },
    {
      "children": [
        2,
        3,
        4,
        5,
        6,
        7,
        8,
        9,
        10,
        11,
        12,
        13,
        14,
        15,
        16,
        17,
        18,
        19
      ],
      "name": "VirginWtFemale.obj.cleaner.materialmerger.gles"
    },
    {
      "mesh": 0,
      "name": "Object_2"
    },
    {
      "mesh": 1,
      "name": "Object_3"
    },
    {
      "mesh": 2,
      "name": "Object_4"
    },
    {
      "mesh": 3,
      "name": "Object_5"
    },
    {
      "mesh": 4,
      "name": "Object_6"
    },
    {
      "mesh": 5,
      "name": "Object_7"
    },
    {
      "mesh": 6,
      "name": "Object_8"
    },
    {
      "mesh": 7,
      "name": "Object_9"
    },
    {
      "mesh": 8,
      "name": "Object_10"
    },
    {
      "mesh": 9,
      "name": "Object_11"
    },
    {
      "mesh": 10,
      "name": "Object_12"
    },
    {
      "mesh": 11,
      "name": "Object_13"
    },
    {
      "mesh": 12,
      "name": "Object_14"
    },
    {
      "mesh": 13,
      "name": "Object_15"
    },
    {
      "mesh": 14,
      "name": "Object_16"
    },
    {
      "mesh": 15,
      "name": "Object_17"
    },
    {
      "mesh": 16,
      "name": "Object_18"
    },
    {
      "mesh": 17,
      "name": "Object_19"
    }
  ],
  "scene": 0,
  "scenes": [
    {
      "name": "Sketchfab_Scene",
      "nodes": [
        0
      ]
    }
  ]
}
